PathFileType	4	(X/Y/Z)	C:/Users/beibeiliu/ov580/test_trc/User2\sequence.16_training_dense_right.trc
DataRate	CameraRate	NumFrames	NumMarkers	Units	OrigDataRate	OrigDataStartFrame	OrigNumFrames
120	120	24	19	mm	120	1	50
Frame#	Time	ThumbCMC			ThumbMCP			ThumbIP			ThumbTip			IndexMCP			IndexPIP			IndexTip			MiddleMCP			MiddlePIP			MiddleTip			RingMCP			RingPIP			RingTip			PinkyMCP			PinkyPIP			PinkyTip			BackHand1			BackHand2			BackHand3	
		X0	Y0	Z0	X1	Y1	Z1	X2	Y2	Z2	X3	Y3	Z3	X4	Y4	Z4	X5	Y5	Z5	X6	Y6	Z6	X7	Y7	Z7	X8	Y8	Z8	X9	Y9	Z9	X10	Y10	Z10	X11	Y11	Z11	X12	Y12	Z12	X13	Y13	Z13	X14	Y14	Z14	X15	Y15	Z15	X16	Y16	Z16	X17	Y17	Z17	X18	Y18	Z18	
0	0	143.966	42.4454	-42.1137	128.915	78.2966	-58.1991	101.454	97.5995	-74.0855	74.2808	98.8566	-80.72	112.821	23.2513	-114.973	105.254	26.9648	-144.363	102.296	28.0084	-167.531	73.5718	30.4623	-105.981	59.6453	65.4164	-108.939	68.3685	87.7398	-75.7034	58.0824	37.4506	-87.0118	53.2741	68.7913	-78.7455	74.3709	78.4527	-49.5986	49.9632	34.7329	-65.4	54.7555	66.404	-54.2963	79.8265	65.1659	-35.1492	92.8652	-5.84888	-52.86	113.22	-16.7715	-24.4726	133.179	1.38225	-51.9501	
1	0.00833333	149.194	42.3562	-50.97	129.878	68.6197	-63.6209	99.6822	82.2406	-85.502	74.6131	83.8845	-94.1092	129.838	11.8301	-119.043	127.56	12.0275	-149.386	119.362	9.68052	-175.819	93.2757	11.9279	-114.458	69.392	44.6359	-121.136	70.473	69.9849	-91.4282	72.3466	19.174	-98.3881	56.629	43.5673	-90.4786	76.1106	64.3508	-63.692	63.5756	13.8393	-74.6855	59.9632	47.5166	-66.5444	86.2997	51.6278	-47.9028	110.429	-15.905	-55.8725	129.063	-20.6247	-25.5895	148.138	-2.49068	-56.469	
2	0.0166667	152.381	47.9036	-47.375	123.378	65.3433	-67.8648	94.0356	73.0078	-90.3891	71.1229	62.1873	-99.6046	144.78	10.3206	-120.5	145.772	11.692	-146.978	140.152	5.98492	-174.09	106.425	1.16789	-122.118	79.2128	24.2723	-130.308	68.7363	51.531	-102.248	84.938	0.369942	-102.462	67.1648	24.0449	-100.995	74.287	46.8745	-72.2444	76.1808	-4.20308	-83.2779	63.2775	24.7878	-76.1212	81.3052	40.1185	-56.9346	127.144	-21.3737	-58.3569	142.038	-22.8376	-27.4839	160.36	0.58541	-53.6046	
3	0.025	144.279	54.0826	-47.8737	113.842	66.1772	-66.5198	84.4173	59.2926	-92.7123	65.0576	43.1073	-104.119	156.657	20.6558	-117.183	158.163	20.5463	-149.325	156.574	13.8944	-174.149	121.901	-5.67299	-120.94	87.2086	8.83237	-132.666	67.928	29.9607	-108.064	100.51	-9.1467	-108.488	73.1189	8.82349	-104.272	74.2031	30.7472	-77.055	92.9753	-18.5734	-87.1697	71.0329	4.03216	-83.5499	81.2011	26.8982	-58.1554	146.569	-17.9058	-59.8807	155.179	-14.7197	-24.1763	167.755	14.703	-54.9787	
4	0.0333333	131.784	57.9506	-45.6568	100.643	58.3411	-65.1973	76.6849	45.8415	-92.6224	65.2067	23.4626	-107.052	160.51	33.3776	-116.924	163.696	38.2903	-141.658	165.977	33.0136	-169.233	138.694	4.15199	-119.931	99.5596	4.11649	-134.72	73.0677	14.7736	-112.925	119.978	-12.2058	-106.948	85.3322	-2.9574	-108.301	74.6957	14.127	-78.5564	112.305	-27.6436	-88.0776	80.5228	-8.90429	-86.2453	83.195	10.9657	-60.8711	159.158	-8.75393	-55.7479	165.873	-8.19945	-22.3173	167.404	24.2806	-46.104	
5	0.0416667	117.523	54.6046	-43.3006	91.0462	46.0237	-64.4039	73.7449	30.9471	-90.2401	69.0669	10.0055	-109.322	155.266	51.0878	-110.976	161.367	52.6895	-138.922	166.75	61.6408	-165.478	145.794	12.0654	-118.779	112.601	0.640418	-136.062	81.8244	1.98639	-113.974	131.089	-8.5653	-111.012	100.102	-15.4995	-112.117	82.6405	-1.12075	-85.3787	127.803	-28.7212	-93.1908	97.4844	-20.9491	-92.1033	87.9621	-2.15262	-61.7784	166.846	-1.22751	-56.6491	169.181	5.40182	-23.5998	162.492	36.2388	-45.9969	
6	0.05	106.902	46.4087	-39.7187	81.3067	36.6532	-64.9571	70.5754	18.9561	-97.6421	72.6586	-1.24793	-116.65	146.37	61.3513	-106.143	149.812	73.0421	-132.405	158.601	76.26	-157.586	145.511	25.4683	-118.772	117.338	5.99378	-135.826	88.8939	-6.00335	-111.232	141.562	-5.35899	-111.728	112.312	-18.1563	-114.068	91.5644	-13.9934	-86.0578	143.602	-20.2116	-94.2446	108.691	-27.2516	-91.5631	98.0545	-11.4216	-62.6531	169.097	14.9464	-52.5216	167.226	17.1172	-19.398	152.248	46.1401	-41.4573	
7	0.0583333	94.7299	40.9185	-33.7131	75.9937	26.709	-65.0835	71.528	10.202	-97.9057	81.277	-6.46319	-120.859	131.261	72.2685	-100.553	135.373	82.9926	-128.489	140.298	95.2267	-152.258	140.692	33.3199	-117.441	117.296	9.58539	-133.974	94.3913	-12.1129	-106.023	144.412	4.09819	-111.302	119.755	-15.9277	-114.224	98.2463	-15.6388	-87.4651	151.524	-9.62817	-94.4145	120.729	-23.7627	-95.5412	104.964	-18.1046	-63.9557	165.705	28.9958	-54.1185	162.909	26.4104	-14.953	138.878	53.9703	-34.4653	
8	0.0666667	89.4659	33.9608	-36.5075	70.8084	17.4929	-63.8368	71.5079	2.08049	-95.0346	83.2842	-12.4014	-118.64	118.198	72.9899	-99.111	117.887	86.6609	-122.831	121.757	96.2946	-144.97	134.476	38.3198	-113.864	114.743	7.94769	-130.924	98.1719	-12.6586	-109.071	142.421	14.8763	-107.116	122.592	-10.4073	-113.91	102.615	-19.4889	-81.5712	151.535	-4.05812	-94.0163	122.551	-21.6749	-91.5567	112.707	-22.0529	-62.0788	161.621	34.4018	-49.7015	158.178	31.1906	-15.335	129.165	52.8302	-30.9836	
9	0.075	78.8001	29.8192	-30.5653	64.9502	8.51337	-61.9541	66.2951	-8.1016	-92.4107	83.6159	-21.7632	-115.106	109.922	65.6433	-99.8041	104.3	76.1516	-121.623	108.367	87.1779	-150.21	123.716	33.2782	-114.754	109.022	-0.0610707	-127.005	93.0271	-20.4741	-102.457	136.937	8.942	-103.905	117.499	-16.6637	-108.531	99.4595	-23.8264	-76.7083	147.788	-9.35377	-89.7984	119.942	-28.357	-85.2509	107.131	-22.0277	-56.2839	148.274	34.0588	-45.9117	150.13	31.8068	-14.584	122.432	51.4955	-29.1709	
10	0.0833333	73.1731	23.1627	-30.6306	55.4828	-2.23388	-58.2963	56.1975	-25.6236	-85.6064	78.9287	-40.1373	-102.485	97.0802	49.688	-98.882	93.1817	57.0634	-129.715	98.9603	60.3103	-153.347	115.373	14.1257	-110.631	102.412	-18.1325	-119.701	85.1972	-34.5679	-87.8577	126.151	-10.2617	-99.9464	107.414	-34.3444	-97.3421	90.6445	-34.9535	-64.6562	137.688	-23.2103	-81.2712	110.201	-39.9775	-73.4882	99.1222	-27.3109	-42.462	139.574	27.0713	-43.3525	140.752	30.9614	-9.70127	111.365	44.4091	-30.082	
11	0.0916667	61.0846	16.7315	-21.2816	48.1339	-12.7121	-42.8755	46.1068	-43.2508	-70.0932	66.856	-61.1699	-84.0184	81.5235	27.9666	-101.979	79.9792	26.5869	-130.217	79.8921	25.4704	-157.602	99.0796	-6.02748	-102.239	83.7104	-42.6695	-103.841	67.0181	-48.8884	-69.0914	111.268	-30.019	-89.6735	93.1202	-53.8207	-80.4616	76.4122	-44.8814	-47.2329	118.414	-39.1027	-71.8273	94.0132	-54.2298	-54.2164	88.8231	-35.2626	-28.6196	130.774	14.2874	-47.0355	131.028	25.5499	-11.7455	98.2629	37.7022	-35.6564	
12	0.1	50.1409	18.0232	-15.6343	34.0734	-14.4296	-29.2999	27.1213	-45.1518	-45.4993	41.9608	-67.836	-59.9259	65.7248	15.1263	-99.8372	62.1057	7.51885	-124.543	56.8062	3.47238	-147.327	77.5457	-24.578	-95.7476	61.3564	-56.6038	-83.2319	50.2626	-54.1587	-48.4081	89.2191	-43.5859	-78.2288	70.7986	-64.6977	-60.5862	56.7342	-49.3062	-31.6364	101.213	-52.1205	-59.0586	75.2872	-58.7651	-39.7089	72.5447	-34.7499	-17.8875	118.268	7.79726	-44.9953	122.642	20.5139	-12.8505	91.3644	35.7023	-32.3468	
13	0.108333	49.0214	25.2595	-10.4407	22.0711	-2.81695	-15.6537	9.5669	-32.2713	-28.882	15.1073	-58.1298	-38.9814	53.9308	11.6666	-89.5594	44.7555	4.01032	-115.735	35.5617	-3.46983	-142.903	61.4749	-26.1851	-82.1529	36.5796	-52.4944	-70.2585	29.0404	-45.696	-28.8321	66.8337	-47.4954	-65.6441	44.125	-56.8188	-49.1708	39.1522	-45.2481	-17.7422	82.0041	-53.0622	-46.9518	54.8936	-53.7346	-22.7157	56.1357	-29.69	-7.27905	107.171	3.8014	-39.7298	117.811	17.5563	-14.2325	86.828	37.035	-30.9087	
14	0.116667	50.2338	43.0948	-4.98446	15.7218	24.6237	-2.99515	-5.00184	-2.72351	-13.0282	-6.35062	-33.1974	-25.5905	41.7067	23.746	-86.4844	28.4202	14.1482	-108.849	16.0523	9.58506	-129.739	37.9342	-13.0225	-73.0034	13.2062	-33.8632	-56.9913	9.07915	-23.554	-16.7202	45.3906	-36.1708	-54.5421	20.8103	-40.7128	-31.3588	23.3194	-20.5182	-2.02243	58.2853	-42.9202	-36.9087	35.922	-41.0568	-10.8312	45.9179	-11.0253	6.21302	99.329	0.0470463	-38.3017	115.71	18.3701	-13.8557	86.2778	38.4726	-32.0898	
15	0.125	59.9074	62.9232	-3.43122	23.8636	53.7375	3.25614	-7.57663	37.0715	-0.201803	-19.7794	10.9032	-7.06394	36.4251	41.2031	-79.4415	16.8939	37.3451	-100.094	2.21504	34.1035	-119.706	21.5115	5.75463	-63.321	-7.93312	0.831789	-41.3804	-5.39053	9.51434	-5.96851	23.3483	-11.5471	-45.0079	4.53824	-15.5919	-20.5815	14.2169	6.04654	9.90846	36.8568	-25.9696	-26.6414	20.2038	-14.0029	0.187157	37.5643	10.9436	14.3907	91.2998	1.73679	-36.4163	113.877	11.8696	-17.1653	92.1592	43.8455	-29.9588	
16	0.133333	75.0588	74.1092	-2.04713	36.4995	82.4644	6.72366	1.38977	71.7614	5.06701	-19.7429	53.5537	3.5324	35.2187	59.9701	-74.5482	15.4257	63.0931	-91.8228	-4.8248	58.4864	-111.818	15.9334	32.7614	-55.6739	-14.0781	36.3702	-32.5905	-6.5275	41.3346	5.23854	15.2998	14.686	-35.428	-4.37405	23.3556	-6.91323	14.2983	40.5565	19.1649	23.1767	-2.93628	-17.8351	12.1919	19.1807	9.65773	36.8206	36.203	21.0052	80.9386	9.65984	-33.6007	109.865	11.5989	-15.178	95.3542	46.5454	-29.551	
17	0.141667	87.878	84.9658	-5.13167	53.271	98.491	5.32446	20.2929	105.853	10.3937	-5.62644	94.697	10.2271	38.7708	73.722	-71.5583	18.9647	80.6902	-87.7462	-1.14189	84.6949	-103.338	11.8927	55.0585	-47.9164	-11.579	68.6407	-21.6883	1.60023	79.0237	11.5725	8.52877	42.7759	-27.6565	-2.43735	54.9405	3.39221	20.5759	68.5227	22.3082	13.0687	26.3708	-10.4869	12.001	47.2804	16.7807	38.612	55.5265	29.9016	72.0616	15.832	-30.6406	104.034	11.6478	-13.5494	97.9849	51.0836	-31.2692	
18	0.15	105.931	87.8482	-7.65444	73.3605	111.361	0.771082	43.2989	126.687	7.22485	12.4761	123.043	7.8945	51.2226	86.4172	-71.3357	31.7436	94.8546	-87.0397	7.91723	101.824	-105.71	18.5609	77.5019	-48.4232	-0.249646	93.0109	-24.1248	17.132	100.434	13.4894	12.6682	59.2515	-24.3932	4.52792	81.1149	-0.141409	33.8355	89.3413	22.6179	15.5172	46.0522	-8.29034	19.4925	72.1441	17.6599	45.8312	72.3829	28.2453	67.7807	26.9443	-30.6577	96.6928	16.1616	-12.9462	99.3293	47.4866	-33.5038	
19	0.158333	115.462	83.9142	-15.088	91.0021	112.034	-7.95779	65.9848	132.448	-2.75719	35.6111	137.794	-0.73731	63.5951	87.6335	-74.1965	46.2181	100.645	-94.3036	29.5427	112.343	-111.402	27.0625	85.9901	-50.3494	15.9089	112.192	-27.9666	36.8509	118.938	5.91151	18.8769	79.6451	-26.8728	20.1824	102.717	-5.35419	50.9279	102.355	16.9547	22.3535	63.4547	-10.4861	28.6998	88.3099	13.0925	62.4851	85.9274	20.3191	65.3993	31.8611	-31.8524	89.759	14.0812	-14.36	102.747	42.1716	-34.2995	
20	0.166667	121.602	74.3822	-22.1197	109.2	107.557	-17.8996	84.3957	137.434	-17.9875	54.7713	138.178	-16.7847	71.3963	79.5163	-84.0737	62.4601	94.5953	-106.433	46.5302	107.175	-125.19	43.8526	86.9207	-63.1289	31.1004	117.859	-44.7149	56.3765	126.612	-9.82345	30.4775	86.2767	-38.5405	35.0397	111.361	-17.3319	59.1188	107.752	5.65976	25.9784	73.1812	-15.5241	38.4307	96.6498	3.91896	69.6478	87.8893	14.6655	65.9328	26.0316	-29.5498	88.4239	8.66531	-12.4249	105.573	39.7674	-41.8606	
21	0.175	129.123	65.6171	-31.8778	113.216	99.6515	-32.1777	93.1084	130.221	-36.7431	66.4222	136.274	-35.3344	81.3887	67.2654	-98.64	75.222	77.1897	-118.424	58.7964	90.5597	-144.087	50.2124	79.8841	-76.1336	45.9301	115.299	-61.6458	65.1008	121.514	-27.7062	35.9859	81.713	-50.8728	40.8389	106.005	-34.9772	67.7	105.593	-9.95426	32.4935	74.5066	-29.0729	49.2638	96.6797	-12.8316	77.0761	85.4604	-1.13041	73.0632	21.9898	-37.3025	90.1923	5.38865	-14.7543	108	25.2717	-42.9669	
22	0.183333	131.784	55.4345	-39.1909	117.998	88.3324	-43.0331	92.7846	116.339	-55.8143	65.7099	122.538	-56.8856	90.49	47.8898	-109.054	81.051	56.8791	-132.644	68.3096	63.4758	-155.462	55.6854	59.3128	-87.1772	46.1072	95.8382	-79.343	67.7967	108.854	-45.5235	41.2375	63.09	-64.6011	44.3025	94.557	-52.6507	69.8168	95.6848	-25.3044	38.3272	62.5961	-45.6144	49.1677	86.9555	-27.4514	80.7309	77.8881	-17.2565	74.6777	11.9221	-46.6898	96.4596	-2.09906	-17.1113	111.758	16.4927	-49.7433	
23	0.191667	135.37	49.9846	-44.2537	113.962	79.9953	-54.0158	89.2705	100.137	-65.8045	60.1537	108.653	-73.6406	95.5522	28.691	-111.419	89.9462	34.7077	-141.112	75.3097	36.5769	-162.97	62.3319	38.5865	-99.2083	44.7436	73.398	-93.9183	59.4605	92.8256	-63.5569	44.2899	44.1199	-76.1417	41.2753	75.884	-62.7429	71.3072	80.7357	-40.1916	38.051	41.8816	-55.6159	45.7953	69.4472	-45.2959	75.5736	64.4996	-26.4796	80.1701	-1.27856	-49.7777	103.041	-12.9696	-20.3631	121.42	5.53412	-50.4221	
